<?xml version="1.0" encoding="UTF-8"?>
<svg id="Layer_1" data-name="Layer 1" xmlns="http://www.w3.org/2000/svg" viewBox="0 0 2000 2000">
  <defs>
    <style>
      .cls-1 {
        fill: #3b3b46;
      }

      .cls-1, .cls-2, .cls-3 {
        stroke-width: 0px;
      }

      .cls-2 {
        fill: #a0938d;
      }

      .cls-3 {
        fill: transparent;
      }
    </style>
  </defs>
  <rect class="cls-3" width="2000" height="2000"/>
  <g>
    <g>
      <g>
        <g>
          <path class="cls-1" d="m1308.77,1051.97c-10.94,14.97-27.32,28.29-45.8,32-17.19,3.44-34.15-2.42-48.3-12.04-20.48-13.95-37.28-34.94-49.28-56.51-1.76-3.13-1.13-8.79-1.25-12.35-.23-6.88-.04-13.79.31-20.67.23-4.88.31-11.14,1.68-15.94.23-.9.78-5.08,2.15-2.66,13.36,24.03,33.45,48.3,58.34,60.69,15.4,7.66,32.75,9.26,48.77,2.5,8.68-3.63,17.51-9.53,24.85-16.65-5.94-4.69-12.54-8.6-18.99-12.39-23.33-13.72-48.07-26.1-67.17-45.76-28.17-29-30.32-66.51-27.94-105.2.31-5.16.27-10.94,1.68-15.98.63-2.31.47-4.14,2.15-2.66,1.48,1.37,1.21,11.29,1.25,12.39.12,3.83.12,7.74.04,11.61.12,1.02.27,2.03.47,3.05.74,3.71,1.84,7.39,3.13,10.94,2.81,7.74,6.8,15.12,11.72,21.73,9.77,13.13,22.7,23.52,36.22,32.55,20.55,13.68,45.41,23.17,63.62,40.09,9.73,8.99,12.04,18.8,12.47,31.89.63,19.34,1.95,42.87-10.12,59.36Z"/>
          <g>
            <path class="cls-1" d="m797.3,1227.8c0-.08,0-.17-.08-.25v-.42c0,.08.09.08.09.17v.5Z"/>
            <path class="cls-1" d="m797.32,1227.46c0,.17.08.25.08.34-.08-.08-.08-.17-.08-.25v-.08Z"/>
            <path class="cls-1" d="m1179.87,1122.16c-7.36,21.95-31.35,15.37-43.32.63-20.83-26.83-18.4-65.04-19.24-97.09-39.28,46.02-135.8,163-245.52,156.87,6.54-19.4,10.14-39.18,10.97-57.4,109.56-2.04,201.21-114.39,240.36-162.24,4.46,17.26,1.64,36.32.24,54.01q.08.09,0,.17c.1.09.07.27.07.34.08.17,0,.17,0,.17.07,1.26.32,4.15.29,4.56q-.08-.09-.08-.17c0,.08,0,.17.08.26-1.57,25.6,27.51,76.57,53.97,48.62-3.38-30.27-17.66-58.36-13.57-89.18.49-3.32.27-22.56,4.19-20.02,15.36,50.99,24.09,107.91,11.56,160.47Z"/>
          </g>
        </g>
        <g>
          <g>
            <path class="cls-1" d="m1455.73,1189.79c-3.45,11.21-8.87,22.85-15,32.83-.59,1.05-10.5,16.97-7.41,6.92,8.48-27.45-54.74-54.21-68.86-71.74-32.32-39.97-.24-92.79,21.76-129.61,5.87-9.83,4.37-4.97,3.33,1.62-1.54,10.69-12.57,17.95-15.73,40.8-.81,5.84.15,11.67,1.64,17.28,1.89,6.91,5.34,13.36,9.52,19.11,8.96,12.39,21.66,21.53,33.96,30.22,18.21,12.97,44.92,26.37,36.79,52.58Z"/>
            <path class="cls-1" d="m1380.81,1021.18c-7.49,26.88,2.24,44.53,21.76,63.87,21.78,21.59,67.22,57.58,53.8,93.97-12.75,34.56,3.97,4.86,9.88-11.18,13.81-37.44,13.87-67.01-12.25-100.14-16.58-21.02-64.94-47.84-56.01-79.86,2.77-9.92,1.11-6.98-3.47-1.37-6.84,8.39-10.81,24.32-13.7,34.7h0Z"/>
          </g>
          <path class="cls-1" d="m1385.87,1006.77c-93.44,195.13-297.89,245.95-375.68,92.41,2.12,4.19-25.02,37.26-20.03,47.12,83.86,189.14,342.79,82.72,399.85-134.28l-4.15-5.25Z"/>
        </g>
        <g>
          <path class="cls-1" d="m810.3,1164.39c-53.95-39.58-149.47-5.02-208.36,4.67-56.1,9.23-148.71,16.65-119.12-97.41,3.33-12.83-12.69,20.72-19.01,42.99-7.42,26.16-10.76,70.36,12.2,95.71,28.56,31.54,80.32,19.84,108.69,16.32,40.79-5.07,64.46-15.97,105.18-22.4,32.07-5.06,73.49-12.02,102.16,9.01,1.96,1.44,23.23-52.23,19.43-55.37l-1.16,6.48Z"/>
          <path class="cls-1" d="m657.07,1020.64c-18.45-29.6-2.04-73.92,7.76-102.63,1.75-5.12,6.27-14.75,8.89-23.57l-6.98-1.81c-16.84,48.52-40.43,108.53-33.36,160.89,9.52,70.58,104.46,27.99,142.42,9.51,6.67-3.25-.65-18.92,1.18-25.15.92-3.13,4.14-28.31,5.32-28.9-27.7,13.79-99.43,53.06-125.23,11.67Z"/>
          <path class="cls-1" d="m807.4,1177.5c19.64-61.65,24.88-132.66-26.02-181.88-23.75-22.96-111.67-86.39-103-124.56,7.93-34.94-10.96,17.08-13.13,26.62-10.34,45.52,15.46,76.15,48.88,105.65,31.02,27.39,110.99,74.71,84.69,157.28-5.62,17.65-3.85,55.9,8.57,16.9h0Z"/>
        </g>
        <path class="cls-1" d="m1267.38,686.29c-27.09,98.16,54.18,163.61,119.9,222.35,84.98,75.96,165.91,166.52,126.74,289.19-9.86,30.87,8.61-16.51,11.15-24.45,16.66-52.19,24.46-105.15,5.57-157.97-18.31-51.23-56.21-92.36-95.17-129.01-66.57-62.62-181.12-135.69-151.55-242.8,2.73-9.88-4.53,7.52-4.9,8.35-4.93,10.86-8.56,22.85-11.74,34.35h0Z"/>
        <path class="cls-1" d="m892.38,1125.11c-2.39,9.96-5.28,19.99-8.43,29.92-1.3,4.09-6.85,18.76-10.64,27.75-.5-.1-1.01-.11-1.51-.21.36-.92.64-1.92,1.01-3.09,6.01-18.87,9.13-36.89,9.96-54.31,4.22-95.83-64.85-170.57-136.74-234.94-65.73-58.72-146.95-124.11-119.91-222.34,3.19-11.45,6.81-23.48,11.75-34.29.36-.83,7.68-18.23,4.95-8.37-29.56,107.08,84.96,180.15,151.52,242.77,38.98,36.65,76.82,77.82,95.17,129.05,15.3,42.72,13.08,85.54,2.87,128.05Z"/>
        <path class="cls-1" d="m558.38,906.56c5.83-8.91,13.88-23.45,19.89-31.34,11.34,7.26,33.03,21.03,45.06,27.07,9-12.51,17.44-30.05,20.95-44.89.26-1.35-1.43-3.55-5.07-6.59-10.79-8.98-28.04-19.32-40.18-25.57-2.22,5.05-7.23,15.58-10.8,21.76-2.87,5.58-6.1,11.71-9.68,18.4-12.52-8.6-29.56-20.08-43.74-25.67-3.62,3.29-8.51,15.49-11.99,21.72-3.01,6.31-9.08,18.31-10.32,22.79,14.71,9.87,28.06,17.28,41.27,29,.7-.66,2.23-2.88,4.6-6.66Z"/>
        <path class="cls-1" d="m980.36,871.05c10.16,5.13,21.13,12.47,29.84,19.45,7.33-13.83,14.6-30.51,21.69-45.97l-6.32-5.72c-9.94-6.99-23.7-13.59-35.25-17.37-6.03,10.96-15.22,33.53-19.67,45.28,2.95,1.11,6.19,2.55,9.71,4.33Zm16.72,86.11c5.83-8.91,13.88-23.44,19.89-31.34,11.35,7.26,33.03,21.03,45.06,27.07,9-12.5,18.89-33.97,22.48-48.8.27-1.35-34.65-22-46.78-28.25-2.23,5.05-7.22,15.58-10.8,21.76-2.87,5.58-6.1,11.71-9.68,18.39-12.52-8.61-29.56-20.08-43.74-25.67-3.61,3.3-22.56,40.03-23.83,44.51,15.05,9.87,29.59,17.27,42.8,29,.7-.66,2.24-2.88,4.6-6.66Z"/>
        <path class="cls-2" d="m1209.45,712.09c-105.64,122.18-365.89-99.49-467.35,68.01,125.93-124.13,377.59,103.11,467.35-68.01h0Z"/>
      </g>
      <path class="cls-1" d="m1241.75,659.77c-3.04,3.07-5.61,6.02-7.73,8.84-2.12,2.82-3.8,5.26-5.05,7.34-1.25,2.07-2.03,3.45-2.33,4.15l.26,1.9,1.78.26c1.59-1.5,4.31-3.46,8.17-5.88,3.86-2.42,8.32-5.03,13.39-7.84,5.06-2.81,10.59-5.71,16.57-8.7,5.99-2.99,11.89-5.81,17.73-8.45,5.83-2.64,11.41-5.01,16.74-7.11,5.33-2.09,9.9-3.72,13.73-4.88.14,0,.8-.96,1.98-2.89,1.18-1.93,2.47-4.21,3.88-6.84,1.41-2.63,2.78-5.33,4.13-8.1,1.34-2.77,2.39-5.06,3.14-6.86l.2-3.47c-.2-.5-1.94.19-5.22,2.06-4.71,2.82-9.91,5.16-15.58,7.04-5.67,1.88-11.4,3.26-17.18,4.15-5.79.89-11.41,1.26-16.89,1.1-5.47-.15-10.37-.85-14.69-2.1-4.32-1.24-7.74-3.1-10.27-5.56-2.53-2.46-3.74-5.51-3.64-9.16l2-3.63,4.63-3.45c1.78-1,3.67-1.83,5.65-2.47,1.98-.65,3.61-.95,4.87-.92,4.62.41,8,1.35,10.14,2.81,2.13,1.47,4.16,3.21,6.07,5.23l3.37.2c1.29-1.02,2.53-2.53,3.71-4.53,1.18-2,2.15-4.19,2.92-6.55.77-2.37,1.18-4.32,1.22-5.86l-.06-5.16-.9-5.29-2.41-4.18c-1.09-1.15-2.62-1.76-4.58-1.81-3.79-.11-7.71.7-11.76,2.41-4.05,1.71-8.05,4.06-12,7.03-3.95,2.98-7.7,6.42-11.25,10.32-3.56,3.9-6.72,7.96-9.51,12.16-2.79,4.21-5.05,8.39-6.78,12.55-1.73,4.16-2.72,8-2.96,11.5-.27,4.63.89,8.35,3.48,11.16,2.59,2.81,5.51,5,8.77,6.57,3.25,1.57,6.21,2.63,8.86,3.2,2.65.57,3.84.92,3.55,1.05-3.73,2.71-7.11,5.59-10.15,8.67Z"/>
      <path class="cls-2" d="m1034.59,606.45c-.33,5.49-1.83,11.37-2.69,18.19-16.55-15.59-25.62-14.68-33.2,3.28-7.72,18.2-12.54,37.23-18.68,55.88-1.46,4.49-3.08,8.91-5.18,14.88-8.85-22.79-30.37-68.38-30.37-68.38,0,0-7.82,6.96-10,8.92-21.41-15.49-4.34-46.76,12.88-51.24l32.73,76.59s2.22-6.3,3.25-9.48c4.58-14.12,8.69-28.35,13.92-42.27,7.83-20.91,23.81-32.23,34.25-17.6,2.39,3.34,3.31,7.27,3.09,11.21Z"/>
    </g>
    <g>
      <path class="cls-2" d="m697.61,1417.91l-51.74-104.93c-.61-1.22-1.51-2.22-2.68-2.95-1.17-.74-2.45-1.11-3.8-1.11h-15.5l1.67,1.67.23.22c.58.48,1.14,1.1,1.68,1.83.56.77,1.05,1.52,1.47,2.24l5.35,9.17-43.23,93.95c-.19.47-.45.94-.78,1.4-.3.42-.64.75-1.14,1.06l-5.43,4.01h13.85l18.42-39.89h45.86l17.87,37.62c1.02,1.88,2.51,2.27,3.58,2.27h21.15l-4.8-3.96c-.76-.66-1.43-1.53-2.02-2.59Zm-39.42-41.06h-38.59l19-41.26,19.59,41.26Z"/>
      <path class="cls-2" d="m869.99,1419.66c-.35-1.1-.64-2.55-.84-4.28l-8.08-106.46h-6.03c-2.21,0-4.28.62-6.14,1.84-1.85,1.22-3.26,2.83-4.2,4.82l-37.01,81.07-45.52-81.92c-.94-1.76-2.3-3.18-4.05-4.22-1.75-1.05-3.64-1.58-5.63-1.58h-13.53l8.21,14.49-7.19,88.3c-.21,2.66-.69,4.87-1.44,6.57-.76,1.72-1.71,3.26-2.81,4.57l-1.36,1.61h20.88l-1.37-1.61c-1.13-1.33-2.17-2.82-3.1-4.43-.87-1.49-1.31-3.4-1.31-5.67v-1.21s5.52-74,5.52-74l39.92,71.06c1.09,1.85,2.5,3.78,4.19,5.75,1.71,1.98,3.53,3.61,5.41,4.83l1.44.95,39.43-87.89,6.28,83.24v.96c0,1.24-.21,2.35-.64,3.28-.45,1.01-1.05,2.1-1.78,3.24l-.95,1.5h24.22l-.96-1.5c-.7-1.1-1.23-2.21-1.58-3.3Z"/>
      <path class="cls-2" d="m984.88,1372.91h0c-2.98-2.49-6.84-4.98-11.47-7.41-4.6-2.41-10.17-5.08-16.56-7.96l-5.14-2.25c-2.72-1.15-5.4-2.38-7.95-3.66-2.49-1.25-4.75-2.71-6.7-4.36-1.92-1.61-3.45-3.56-4.56-5.78-1.1-2.19-1.66-4.96-1.66-8.21,0-3.57.67-6.68,1.98-9.25,1.31-2.58,3.06-4.74,5.18-6.4,2.14-1.68,4.54-2.94,7.14-3.76,2.62-.82,5.25-1.24,7.8-1.24,4.65,0,8.69.73,12.03,2.16,3.36,1.45,6.31,3.33,8.78,5.59,2.49,2.28,4.67,4.86,6.49,7.66,1.86,2.87,3.6,5.71,5.18,8.44l4.13,7.34,4.35-19.3-.33-.37c-2.17-2.49-4.58-4.82-7.17-6.93-2.61-2.12-5.58-3.99-8.84-5.57-3.26-1.57-6.94-2.84-10.94-3.76-4.01-.92-8.62-1.39-13.68-1.39-5.87,0-11.19.97-15.83,2.88-4.64,1.91-8.63,4.49-11.85,7.66-3.23,3.18-5.76,6.92-7.51,11.14-1.75,4.21-2.64,8.68-2.64,13.27,0,3.42.59,6.59,1.76,9.43,1.18,2.85,3.23,5.59,6.1,8.13,2.82,2.5,6.69,5.05,11.49,7.58,4.77,2.52,10.86,5.31,18.11,8.29,5.67,2.31,10.21,4.65,13.51,6.95,3.27,2.29,5.79,4.54,7.48,6.69,1.66,2.11,2.73,4.22,3.18,6.25.46,2.11.7,4.17.7,6.12,0,3.09-.85,5.83-2.54,8.16-1.74,2.4-3.91,4.45-6.46,6.08-2.59,1.66-5.31,2.94-8.1,3.82-2.77.87-5.26,1.32-7.4,1.32-4.94,0-9.47-1.12-13.47-3.32-4.06-2.24-7.67-5.06-10.73-8.38-3.07-3.33-5.61-7.03-7.53-10.98-1.94-3.97-3.34-7.78-4.17-11.33l-.68-2.92-7.23,17.2.11.34c1.1,3.41,2.87,6.72,5.28,9.83,2.4,3.11,5.44,5.91,9.04,8.31,3.59,2.4,7.81,4.32,12.52,5.73,4.73,1.41,9.97,2.13,15.58,2.13,6.48,0,12.39-.97,17.56-2.87,5.16-1.9,9.63-4.49,13.29-7.71,3.66-3.22,6.52-6.99,8.49-11.21,1.97-4.22,2.97-8.75,2.97-13.47,0-3.98-.76-7.5-2.27-10.46-1.5-2.93-3.79-5.71-6.81-8.24Z"/>
      <path class="cls-2" d="m1129.61,1419.79c-.39-1.06-.58-2.29-.58-3.67v-99.01c0-1.27.2-2.45.58-3.51.4-1.1.91-2.18,1.52-3.2l.89-1.48h-24.17l.95,1.5c.7,1.11,1.26,2.25,1.66,3.4.39,1.12.59,2.39.59,3.76v41.96h-55.4v-42.44c0-1.27.2-2.45.58-3.51.4-1.1.91-2.18,1.52-3.2l.89-1.48h-24.17l.95,1.5c.7,1.11,1.26,2.25,1.66,3.4.39,1.12.59,2.39.59,3.76v98.21c0,1.38-.2,2.67-.59,3.85-.4,1.19-.95,2.29-1.63,3.27l-1.08,1.54h24.27l-.89-1.48c-.61-1.02-1.12-2.09-1.52-3.2-.39-1.05-.58-2.29-.58-3.67v-48.69h55.4v48.37c0,1.38-.2,2.68-.59,3.85-.4,1.19-.95,2.29-1.64,3.27l-1.08,1.54h24.27l-.89-1.48c-.61-1.02-1.12-2.09-1.52-3.2Z"/>
      <path class="cls-2" d="m1277.6,1417.91l-51.74-104.93c-.61-1.22-1.51-2.22-2.68-2.95-1.17-.74-2.45-1.11-3.8-1.11h-15.5l1.67,1.67.23.22c.58.48,1.14,1.1,1.68,1.83.56.77,1.05,1.52,1.47,2.24l5.35,9.17-43.23,93.95c-.19.47-.45.94-.78,1.4-.3.42-.64.75-1.14,1.06l-5.43,4.01h13.85l18.42-39.89h45.86l17.87,37.62c1.02,1.88,2.51,2.27,3.58,2.27h21.15l-4.8-3.96c-.76-.66-1.43-1.53-2.02-2.59Zm-39.42-41.06h-38.59l19-41.26,19.59,41.26Z"/>
      <path class="cls-2" d="m1392.77,1365.63l1.67,1.67c1.31,1.31,2.4,2.84,3.26,4.55.84,1.68,1.26,3.21,1.26,4.53v30.42c-3.76,4.69-8.17,7.89-13.1,9.51-5.1,1.66-10.45,2.51-15.88,2.51-4.74,0-9.42-1.15-13.9-3.42-4.49-2.27-8.51-5.64-11.93-9.99-3.44-4.38-6.25-9.86-8.33-16.28-2.1-6.44-3.16-13.85-3.16-22.05s1.11-16.1,3.31-22.6c2.2-6.48,5.16-12.01,8.8-16.43,3.63-4.41,7.86-7.8,12.57-10.08,8.07-3.9,17.07-4.44,25.38-1.71,3.47,1.14,6.8,2.85,9.91,5.07,3.12,2.24,6.04,5.03,8.7,8.31,2.65,3.27,4.89,7.1,6.66,11.38l1.88,4.53v-22.46l-.29-.29c-5.41-5.3-11.66-9.39-18.59-12.15-13.64-5.43-28.7-5.54-42.53-.16-6.82,2.65-12.99,6.58-18.34,11.66-5.36,5.09-9.72,11.42-12.96,18.82-3.24,7.4-4.89,16.03-4.89,25.63s1.64,18.24,4.89,25.7c3.24,7.46,7.6,13.82,12.96,18.91,5.36,5.09,11.53,9.01,18.34,11.66,6.81,2.65,13.89,3.99,21.02,3.99,10.21,0,19.31-1.53,27.03-4.56,7.7-3.01,14.24-6.85,19.43-11.39l.33-.29v-45h-23.52Z"/>
    </g>
  </g>
</svg>